<?xml version="1.0" encoding="utf-8"?>
<svg xmlns="http://www.w3.org/2000/svg"
	xmlns:xlink="http://www.w3.org/1999/xlink"
	width="229px" height="230px" viewBox="0 0 229 230">
<path fillRule="evenodd" d="M 175.69 211.2C 173.52 212.58 170.65 211.95 169.27 209.78 167.9 207.62 168.53 204.75 170.69 203.37 201.04 184 219.16 150.96 219.16 115 219.16 57.23 172.16 10.23 114.39 10.23 56.62 10.23 9.62 57.23 9.62 115 9.62 172.77 56.62 219.77 114.39 219.77 116.95 219.77 119.03 221.85 119.03 224.41 119.03 226.98 116.95 229.05 114.39 229.05 51.5 229.05 0.34 177.89 0.34 115 0.34 52.11 51.5 0.95 114.39 0.95 177.28 0.95 228.44 52.11 228.44 115 228.44 154.15 208.72 190.11 175.69 211.2ZM 112.21 164.48C 112.21 164.48 83.06 185.46 83.06 185.46 80.75 187.13 78.1 187.96 75.46 187.96 72.79 187.96 70.13 187.11 67.81 185.43 63.18 182.07 61.32 176.38 63.06 170.93 63.06 170.93 74 136.72 74 136.72 74.49 135.19 73.94 133.52 72.65 132.57 72.65 132.57 43.7 111.33 43.7 111.33 39.09 107.95 37.25 102.25 39.02 96.81 40.79 91.38 45.62 87.85 51.34 87.82 51.34 87.82 87.25 87.65 87.25 87.65 87.26 87.65 87.26 87.65 87.27 87.65 89.82 87.65 91.9 89.72 91.91 92.27 91.92 94.84 89.86 96.92 87.29 96.94 87.29 96.94 51.38 97.1 51.38 97.1 48.88 97.11 48.05 99.08 47.85 99.68 47.65 100.28 47.17 102.36 49.19 103.84 49.19 103.84 78.14 125.08 78.14 125.08 82.66 128.4 84.55 134.21 82.84 139.54 82.84 139.54 71.9 173.76 71.9 173.76 71.14 176.14 72.75 177.54 73.26 177.92 73.77 178.29 75.6 179.39 77.64 177.92 77.64 177.92 106.79 156.94 106.79 156.94 111.34 153.67 117.45 153.67 122 156.94 122 156.94 151.15 177.92 151.15 177.92 153.18 179.38 155.01 178.28 155.52 177.91 156.03 177.54 157.64 176.14 156.88 173.76 156.88 173.76 145.94 139.54 145.94 139.54 144.23 134.21 146.12 128.4 150.63 125.08 150.63 125.08 179.59 103.84 179.59 103.84 181.61 102.36 181.12 100.28 180.93 99.68 180.73 99.08 179.9 97.11 177.4 97.1 177.4 97.1 141.49 96.94 141.49 96.94 135.89 96.91 130.95 93.32 129.19 88 129.19 88 117.94 53.9 117.94 53.9 117.15 51.52 115.03 51.34 114.39 51.34 113.76 51.34 111.63 51.52 110.85 53.9 110.85 53.9 105.78 69.26 105.78 69.26 104.97 71.7 102.35 73.02 99.91 72.22 97.48 71.41 96.16 68.79 96.96 66.35 96.96 66.35 102.03 50.99 102.03 50.99 103.82 45.56 108.68 42.05 114.39 42.05 120.11 42.05 124.96 45.56 126.75 50.99 126.75 50.99 138.01 85.09 138.01 85.09 138.51 86.61 139.93 87.64 141.53 87.65 141.53 87.65 177.44 87.82 177.44 87.82 183.16 87.84 187.99 91.37 189.76 96.81 191.53 102.25 189.69 107.95 185.08 111.33 185.08 111.33 156.13 132.57 156.13 132.57 154.83 133.52 154.29 135.18 154.78 136.71 154.78 136.71 165.72 170.93 165.72 170.93 167.46 176.37 165.6 182.06 160.98 185.42 156.35 188.78 150.36 188.8 145.72 185.46 145.72 185.46 116.57 164.48 116.57 164.48 115.27 163.54 113.52 163.54 112.21 164.48Z" fill="rgb(207,207,207)"/></svg>