<?xml version="1.0" encoding="utf-8"?>
<svg xmlns="http://www.w3.org/2000/svg"
	xmlns:xlink="http://www.w3.org/1999/xlink"
	width="249px" height="224px" viewBox="0 0 249 224">
<path fillRule="evenodd" d="M 247.63 107.46C 247.63 107.46 165.12 189.98 165.12 189.98 165.12 189.98 209.54 189.98 209.54 189.98 217.32 189.98 223.85 195.37 225.61 202.6 225.61 202.6 229.48 202.6 229.48 202.6 231.65 202.6 233.4 204.36 233.4 206.52 233.4 208.69 231.65 210.44 229.48 210.44 229.48 210.44 225.61 210.44 225.61 210.44 223.85 217.68 217.32 223.07 209.54 223.07 209.54 223.07 118.69 223.05 118.39 223.05 109.97 223.05 101.55 219.85 95.14 213.44 95.14 213.44 10.35 128.65 10.35 128.65-2.47 115.83-2.47 94.96 10.35 82.13 10.35 82.13 86.14 6.34 86.14 6.34 86.69 5.8 87.39 5.42 88.16 5.27 88.16 5.27 114.12 0.15 114.12 0.15 115.4-0.1 116.72 0.3 117.65 1.22 118.57 2.15 118.97 3.47 118.72 4.75 118.72 4.75 113.6 30.72 113.6 30.72 113.45 31.48 113.08 32.18 112.53 32.73 112.53 32.73 72.1 73.16 72.1 73.16 72.1 73.16 131.52 71.44 131.52 71.44 131.52 71.44 135.14 69.16 135.14 69.16 146.42 62.07 161.02 64.72 169.09 75.31 174.18 81.99 183.36 84.19 190.92 80.54 190.92 80.54 195.57 78.29 195.57 78.29 197.13 77.54 198.99 77.9 200.16 79.17 201.33 80.44 201.53 82.32 200.65 83.81 200.23 84.52 190.2 101.23 170.96 105.83 167.74 106.61 164.46 106.99 161.13 106.99 151.6 106.99 141.69 103.82 131.53 97.52 131.53 97.52 70.49 95.75 70.49 95.75 70.49 95.75 136.41 161.67 136.41 161.67 136.41 161.67 219.13 78.95 219.13 78.95 220.66 77.42 223.14 77.42 224.67 78.95 224.67 78.95 247.63 101.92 247.63 101.92 248.37 102.65 248.78 103.65 248.78 104.69 248.78 105.73 248.37 106.72 247.63 107.46ZM 136.61 91.45C 148.13 98.35 159.06 100.63 169.14 98.21 175.58 96.67 180.84 93.42 184.82 90.07 176.48 90.58 168.14 87 162.86 80.06 157.26 72.71 147.14 70.88 139.31 75.79 139.31 75.79 136.61 77.49 136.61 77.49 136.61 77.49 136.61 91.45 136.61 91.45ZM 202.58 215.23C 202.58 215.23 209.54 215.23 209.54 215.23 214.34 215.23 218.25 211.32 218.25 206.52 218.25 201.72 214.34 197.81 209.54 197.81 209.54 197.81 202.58 197.81 202.58 197.81 202.58 197.81 202.58 215.23 202.58 215.23ZM 189.76 215.23C 189.76 215.23 194.74 215.23 194.74 215.23 194.74 215.23 194.74 197.81 194.74 197.81 194.74 197.81 189.76 197.81 189.76 197.81 189.76 197.81 189.76 215.23 189.76 215.23ZM 176.93 215.23C 176.93 215.23 181.92 215.23 181.92 215.23 181.92 215.23 181.92 197.81 181.92 197.81 181.92 197.81 176.93 197.81 176.93 197.81 176.93 197.81 176.93 215.23 176.93 215.23ZM 169.1 215.23C 169.1 215.23 169.1 197.81 169.1 197.81 169.1 197.81 157.28 197.81 157.28 197.81 157.28 197.81 141.65 213.44 141.65 213.44 141.02 214.07 140.36 214.66 139.69 215.23 139.69 215.23 169.1 215.23 169.1 215.23ZM 87.79 15.78C 87.79 15.78 30.94 72.63 30.94 72.63 34.02 72.38 37.12 72.56 40.16 73.17 40.16 73.17 91.78 21.55 91.78 21.55 90.29 19.75 88.96 17.81 87.79 15.78ZM 109.23 12.4C 109.23 12.4 109.9 8.97 109.9 8.97 109.9 8.97 106.47 9.64 106.47 9.64 106.83 10.18 107.25 10.69 107.71 11.16 108.18 11.62 108.69 12.04 109.23 12.4ZM 107.64 20.44C 105.61 19.55 103.76 18.29 102.17 16.7 100.58 15.11 99.32 13.26 98.43 11.23 98.43 11.23 94.64 11.98 94.64 11.98 97.57 17.06 101.81 21.3 106.89 24.23 106.89 24.23 107.64 20.44 107.64 20.44ZM 103.1 31.08C 101.06 29.91 99.12 28.58 97.32 27.09 97.32 27.09 48.4 76.02 48.4 76.02 50.47 77.06 52.47 78.33 54.33 79.84 54.33 79.84 103.1 31.08 103.1 31.08ZM 123.05 89.44C 123.05 89.44 128.78 89.6 128.78 89.6 128.78 89.6 128.77 79.35 128.77 79.35 128.77 79.35 123.05 79.52 123.05 79.52 123.05 79.52 123.05 89.44 123.05 89.44ZM 115.22 89.21C 115.22 89.21 115.22 79.75 115.22 79.75 115.22 79.75 64.02 81.23 64.02 81.23 64.02 81.23 60 85.26 60 85.26 60 85.26 62.42 87.68 62.42 87.68 62.42 87.68 115.22 89.21 115.22 89.21ZM 136.11 172.46C 136.11 172.46 51.33 87.67 51.33 87.67 46.45 82.79 40.03 80.35 33.61 80.35 27.2 80.35 20.78 82.79 15.89 87.67 6.13 97.44 6.13 113.34 15.9 123.11 15.9 123.11 100.68 207.9 100.68 207.9 105.41 212.63 111.7 215.23 118.4 215.23 125.09 215.23 131.38 212.63 136.11 207.9 140.85 203.16 143.45 196.87 143.45 190.18 143.45 183.48 140.85 177.19 136.11 172.46ZM 221.9 87.26C 221.9 87.26 214.37 94.79 214.37 94.79 214.37 94.79 218.31 98.73 218.31 98.73 219.84 100.26 219.84 102.75 218.31 104.28 217.55 105.04 216.55 105.42 215.54 105.42 214.54 105.42 213.54 105.04 212.77 104.28 212.77 104.28 208.83 100.33 208.83 100.33 208.83 100.33 204.01 105.16 204.01 105.16 204.01 105.16 207.95 109.1 207.95 109.1 209.48 110.63 209.48 113.11 207.95 114.64 207.19 115.4 206.18 115.79 205.18 115.79 204.18 115.79 203.18 115.4 202.41 114.64 202.41 114.64 198.47 110.7 198.47 110.7 198.47 110.7 193.65 115.52 193.65 115.52 193.65 115.52 197.59 119.46 197.59 119.46 199.12 120.99 199.12 123.47 197.59 125 196.82 125.77 195.82 126.15 194.82 126.15 193.82 126.15 192.81 125.77 192.05 125 192.05 125 188.11 121.06 188.11 121.06 188.11 121.06 183.28 125.88 183.28 125.88 183.28 125.88 187.23 129.82 187.23 129.82 188.76 131.35 188.76 133.83 187.23 135.36 186.46 136.13 185.46 136.51 184.46 136.51 183.45 136.51 182.45 136.13 181.68 135.36 181.68 135.36 177.74 131.42 177.74 131.42 177.74 131.42 172.92 136.24 172.92 136.24 172.92 136.24 176.86 140.19 176.86 140.19 178.39 141.72 178.39 144.2 176.86 145.73 176.1 146.49 175.1 146.87 174.09 146.87 173.09 146.87 172.09 146.49 171.32 145.73 171.32 145.73 167.38 141.79 167.38 141.79 167.38 141.79 162.56 146.61 162.56 146.61 162.56 146.61 166.5 150.55 166.5 150.55 168.03 152.08 168.03 154.56 166.5 156.09 165.74 156.86 164.73 157.24 163.73 157.24 162.73 157.24 161.73 156.86 160.96 156.09 160.96 156.09 157.02 152.15 157.02 152.15 157.02 152.15 152.2 156.97 152.2 156.97 152.2 156.97 156.14 160.91 156.14 160.91 157.67 162.44 157.67 164.92 156.14 166.45 155.37 167.22 154.37 167.6 153.37 167.6 152.37 167.6 151.36 167.22 150.6 166.45 150.6 166.45 146.66 162.51 146.66 162.51 146.66 162.51 141.94 167.22 141.94 167.22 148.83 174.28 151.9 183.69 151.16 192.85 151.16 192.85 239.32 104.68 239.32 104.68 239.32 104.68 221.9 87.26 221.9 87.26ZM 132.42 204.2C 128.67 207.95 123.69 210.01 118.4 210.01 113.1 210.01 108.12 207.95 104.37 204.2 104.37 204.2 39.35 139.18 39.35 139.18 37.82 137.65 37.82 135.17 39.35 133.64 40.88 132.11 43.36 132.11 44.89 133.64 44.89 133.64 109.91 198.66 109.91 198.66 112.18 200.93 115.19 202.17 118.4 202.17 121.6 202.17 124.61 200.93 126.88 198.66 129.14 196.4 130.39 193.39 130.39 190.18 130.39 186.97 129.14 183.95 126.88 181.69 125.35 180.16 125.35 177.68 126.88 176.15 128.41 174.62 130.89 174.62 132.42 176.15 136.16 179.89 138.22 184.87 138.22 190.18 138.22 195.48 136.16 200.46 132.42 204.2ZM 108.51 161.7C 107.51 161.7 106.5 161.32 105.74 160.55 105.74 160.55 42.1 96.91 42.1 96.91 39.83 94.64 36.82 93.39 33.61 93.39 30.41 93.39 27.4 94.64 25.13 96.91 22.87 99.17 21.62 102.18 21.62 105.39 21.62 108.6 22.87 111.62 25.13 113.88 26.66 115.41 26.66 117.89 25.13 119.42 23.6 120.95 21.12 120.95 19.59 119.42 15.85 115.68 13.79 110.7 13.79 105.39 13.79 100.09 15.85 95.11 19.59 91.37 23.33 87.62 28.32 85.56 33.61 85.56 38.91 85.56 43.89 87.62 47.64 91.37 47.64 91.37 111.28 155.01 111.28 155.01 112.81 156.54 112.81 159.02 111.28 160.55 110.51 161.32 109.51 161.7 108.51 161.7Z" fill="rgb(207,207,207)"/></svg>