<?xml version="1.0" encoding="utf-8"?>
<svg xmlns="http://www.w3.org/2000/svg"
	xmlns:xlink="http://www.w3.org/1999/xlink"
	width="216px" height="264px" viewBox="0 0 216 264">
<path fillRule="evenodd" d="M 210.54 112.28C 210.54 112.28 202.26 112.28 202.26 112.28 199.64 112.28 197.52 110.16 197.52 107.54 197.52 104.92 199.64 102.79 202.26 102.79 202.26 102.79 210.54 102.79 210.54 102.79 213.16 102.79 215.28 104.92 215.28 107.54 215.28 110.16 213.16 112.28 210.54 112.28ZM 199.14 60.25C 199.14 60.25 191.97 64.39 191.97 64.39 191.22 64.83 190.41 65.03 189.6 65.03 187.97 65.03 186.37 64.18 185.49 62.66 184.18 60.39 184.96 57.49 187.23 56.18 187.23 56.18 194.4 52.04 194.4 52.04 196.67 50.73 199.57 51.51 200.88 53.78 202.18 56.04 201.41 58.94 199.14 60.25ZM 165.48 162.55C 154.36 174.01 148.23 188.89 148.23 204.45 148.23 204.45 148.23 215.31 148.23 215.31 148.23 230.57 138.45 243.58 124.83 248.4 124.83 248.4 124.83 250.56 124.83 250.56 124.83 257.97 118.8 264 111.39 264 111.39 264 104.17 264 104.17 264 96.76 264 90.73 257.97 90.73 250.56 90.73 250.56 90.73 248.4 90.73 248.4 77.1 243.58 67.31 230.57 67.31 215.31 67.31 215.31 67.31 204.45 67.31 204.45 67.31 188.91 61.17 174.01 50.01 162.49 35.67 147.69 27.62 128.2 27.35 107.6 26.76 63.27 62.32 26.69 106.62 26.07 128.33 25.77 148.8 33.99 164.25 49.23 179.7 64.46 188.21 84.81 188.21 106.51 188.21 127.56 180.14 147.46 165.48 162.55ZM 100.21 250.56C 100.21 252.74 101.98 254.52 104.17 254.52 104.17 254.52 111.39 254.52 111.39 254.52 113.57 254.52 115.34 252.74 115.34 250.56 115.34 250.56 115.34 250.56 115.34 250.56 115.34 250.56 115.34 250.33 115.34 250.33 114.62 250.38 113.88 250.41 113.15 250.41 113.15 250.41 102.41 250.41 102.41 250.41 101.67 250.41 100.94 250.38 100.21 250.33 100.21 250.33 100.21 250.56 100.21 250.56ZM 102.41 240.92C 102.41 240.92 113.14 240.92 113.14 240.92 123.55 240.92 132.52 234.68 136.52 225.75 136.52 225.75 79.03 225.75 79.03 225.75 83.03 234.68 92 240.92 102.41 240.92ZM 76.8 215.31C 76.8 215.63 76.81 215.95 76.82 216.26 76.82 216.26 138.73 216.26 138.73 216.26 138.74 215.95 138.75 215.63 138.75 215.31 138.75 215.31 138.75 215.31 138.75 215.31 138.75 215.31 138.75 209.19 138.75 209.19 138.75 209.19 76.8 209.19 76.8 209.19 76.8 209.19 76.8 215.31 76.8 215.31ZM 107.78 102.53C 104.89 102.53 102.08 101.98 99.45 100.93 99.45 100.93 96.47 105.38 96.47 105.38 103.85 107.43 111.7 107.43 119.08 105.38 119.08 105.38 116.1 100.93 116.1 100.93 113.47 101.98 110.66 102.53 107.78 102.53ZM 110.6 92.73C 110.6 92.73 107.78 88.52 107.78 88.52 107.78 88.52 104.95 92.73 104.95 92.73 105.87 92.94 106.81 93.04 107.78 93.04 108.74 93.04 109.68 92.94 110.6 92.73ZM 93.87 114.5C 93.87 114.5 93.87 199.71 93.87 199.71 93.87 199.71 103.03 199.71 103.03 199.71 103.03 199.71 103.03 116.18 103.03 116.18 99.94 115.9 96.87 115.34 93.87 114.5ZM 112.52 116.18C 112.52 116.18 112.52 199.71 112.52 199.71 112.52 199.71 121.68 199.71 121.68 199.71 121.68 199.71 121.68 114.5 121.68 114.5 118.68 115.34 115.61 115.9 112.52 116.18ZM 157.59 55.98C 144.21 42.78 126.55 35.55 107.78 35.55 107.44 35.55 107.1 35.55 106.75 35.56 87.91 35.82 70.24 43.47 56.99 57.11 43.74 70.74 36.58 88.62 36.83 107.47 37.07 125.64 44.17 142.83 56.82 155.89 68.57 168.01 75.5 183.42 76.63 199.71 76.63 199.71 84.38 199.71 84.38 199.71 84.38 199.71 84.38 107.82 84.38 107.82 84.38 106.88 84.66 105.96 85.19 105.18 85.19 105.18 103.84 77.36 103.84 77.36 104.72 76.04 106.19 75.26 107.77 75.26 109.36 75.26 110.83 76.04 111.71 77.36 111.71 77.36 130.36 105.18 130.36 105.18 130.89 105.96 131.17 106.88 131.17 107.82 131.17 107.82 131.17 199.71 131.17 199.71 131.17 199.71 138.92 199.71 138.92 199.71 140.04 183.4 146.96 168.01 158.68 155.94 171.61 142.63 178.73 125.07 178.73 106.51 178.73 87.37 171.22 69.42 157.59 55.98ZM 167.66 111.26C 165.04 111.26 162.92 109.13 162.92 106.51 162.92 82.02 146.47 60.2 122.91 53.47 120.39 52.75 118.94 50.12 119.66 47.6 120.38 45.09 123 43.63 125.52 44.35 153.12 52.24 172.4 77.8 172.41 106.51 172.41 109.13 170.28 111.26 167.66 111.26ZM 111.07 51.44C 110.98 51.44 110.9 51.44 110.81 51.44 109.54 51.37 108.25 51.34 106.97 51.36 106.95 51.36 106.93 51.36 106.91 51.36 104.32 51.36 102.2 49.28 102.17 46.68 102.13 44.07 104.22 41.91 106.84 41.88 108.34 41.86 109.84 41.89 111.33 41.97 113.94 42.11 115.95 44.35 115.8 46.96 115.66 49.49 113.57 51.44 111.07 51.44ZM 159.12 28.07C 158.24 29.59 156.65 30.44 155.01 30.44 154.21 30.44 153.39 30.24 152.65 29.8 150.38 28.49 149.6 25.59 150.91 23.33 150.91 23.33 155.05 16.16 155.05 16.16 156.36 13.89 159.26 13.11 161.53 14.42 163.8 15.73 164.57 18.63 163.26 20.9 163.26 20.9 159.12 28.07 159.12 28.07ZM 107.78 17.78C 105.16 17.78 103.03 15.66 103.03 13.04 103.03 13.04 103.03 4.76 103.03 4.76 103.03 2.14 105.16 0.01 107.78 0.01 110.39 0.01 112.52 2.14 112.52 4.76 112.52 4.76 112.52 13.04 112.52 13.04 112.52 15.66 110.39 17.78 107.78 17.78ZM 62.91 29.81C 62.16 30.24 61.34 30.44 60.54 30.44 58.9 30.44 57.31 29.59 56.43 28.07 56.43 28.07 52.29 20.9 52.29 20.9 50.98 18.63 51.76 15.73 54.02 14.42 56.29 13.11 59.19 13.89 60.5 16.16 60.5 16.16 64.64 23.33 64.64 23.33 65.95 25.6 65.17 28.5 62.91 29.81ZM 25.95 65.03C 25.14 65.03 24.33 64.82 23.58 64.39 23.58 64.39 16.41 60.25 16.41 60.25 14.14 58.94 13.37 56.04 14.68 53.78 15.99 51.51 18.89 50.73 21.15 52.04 21.15 52.04 28.32 56.18 28.32 56.18 30.59 57.49 31.37 60.39 30.06 62.66 29.18 64.18 27.59 65.03 25.95 65.03ZM 18.03 107.54C 18.03 110.16 15.91 112.28 13.29 112.28 13.29 112.28 5.01 112.28 5.01 112.28 2.4 112.28 0.27 110.16 0.27 107.54 0.27 104.92 2.4 102.79 5.01 102.79 5.01 102.79 13.29 102.79 13.29 102.79 15.91 102.79 18.03 104.92 18.03 107.54ZM 16.41 154.82C 16.41 154.82 23.58 150.68 23.58 150.68 25.84 149.37 28.74 150.15 30.05 152.42 31.36 154.69 30.58 157.59 28.32 158.9 28.32 158.9 21.15 163.03 21.15 163.03 20.41 163.46 19.59 163.67 18.79 163.67 17.15 163.67 15.55 162.82 14.68 161.3 13.37 159.03 14.14 156.13 16.41 154.82ZM 191.98 150.68C 191.98 150.68 199.14 154.82 199.14 154.82 201.41 156.13 202.19 159.03 200.88 161.3 200 162.82 198.4 163.67 196.76 163.67 195.96 163.67 195.15 163.46 194.4 163.03 194.4 163.03 187.23 158.9 187.23 158.9 184.97 157.59 184.19 154.69 185.5 152.42 186.81 150.15 189.71 149.37 191.98 150.68Z" fill="rgb(207,207,207)"/></svg>