<?xml version="1.0" encoding="utf-8"?>
<svg xmlns="http://www.w3.org/2000/svg"
	xmlns:xlink="http://www.w3.org/1999/xlink"
	width="60px" height="34px" viewBox="0 0 60 34">
<g transform="matrix(0.12 0.00 0.00 0.12 0.00 0.00)"><path fillRule="evenodd" d="M 480.73 286C 480.73 286 132.68 286 132.68 286 115.44 286 101.41 271.97 101.41 254.71 101.41 254.71 101.41 232.33 101.41 232.33 101.41 232.33 78.58 232.33 78.58 232.33 78.58 232.33 65.74 232.33 65.74 232.33 56.28 232.33 48.61 224.66 48.61 215.19 48.61 205.73 56.28 198.06 65.74 198.06 65.74 198.06 78.58 198.06 78.58 198.06 78.58 198.06 101.41 198.06 101.41 198.06 101.41 198.06 101.41 35.65 101.41 35.65 101.41 35.65 265.98 156.47 265.98 156.47 277.97 165.28 292.34 169.68 306.71 169.68 321.07 169.68 335.44 165.27 347.43 156.47 347.43 156.47 512 35.65 512 35.65 512 35.65 512 254.71 512 254.71 512 271.96 497.97 286 480.73 286ZM 279.49 138.05C 279.49 138.05 107.98 12.13 107.98 12.13 113.71 4.76 122.65 0 132.68 0 132.68 0 480.73 0 480.73 0 490.76 0 499.71 4.76 505.43 12.13 505.43 12.13 333.92 138.05 333.92 138.05 317.9 149.81 295.52 149.81 279.49 138.05ZM 65.74 166.99C 65.74 166.99 17.13 166.99 17.13 166.99 7.67 166.99 0 159.32 0 149.85 0 140.39 7.67 132.72 17.13 132.72 17.13 132.72 65.74 132.72 65.74 132.72 70.86 132.72 75.44 134.98 78.58 138.54 81.24 141.56 82.87 145.51 82.87 149.85 82.87 154.2 81.24 158.15 78.58 161.17 75.44 164.73 70.86 166.99 65.74 166.99Z" fill="rgb(255,255,255)"/></g></svg>